<?xml version="1.0" encoding="UTF-8"?>
<svg xmlns="http://www.w3.org/2000/svg" xmlns:xlink="http://www.w3.org/1999/xlink" width="552" height="400">
  <defs>
    <linearGradient id="linear-gradient" x1="78.2" y1="90" x2="244.4" y2="90" gradientUnits="userSpaceOnUse">
      <stop offset="0" stop-color="#b3b3b3" stop-opacity=".6"></stop>
      <stop offset="1" stop-color="#718095" stop-opacity=".6"></stop>
    </linearGradient>
    <linearGradient id="linear-gradient-2" x1="86" y1="94.8" x2="253.1" y2="94.8" gradientUnits="userSpaceOnUse">
      <stop offset="0" stop-color="#28cce8" stop-opacity=".5"></stop>
      <stop offset=".2" stop-color="#2ac8e7" stop-opacity=".5"></stop>
      <stop offset=".8" stop-color="#5476cc" stop-opacity=".5"></stop>
      <stop offset="1" stop-color="#4a6dc9" stop-opacity=".5"></stop>
    </linearGradient>
    <linearGradient id="linear-gradient-3" x1="-16924.5" y1="-3716.3" x2="-16948.7" y2="-3716.3" gradientTransform="matrix(.87 -.5 0 1.15 14924.4 -4088.4)" gradientUnits="userSpaceOnUse">
      <stop offset="0" stop-color="#95a0b0" stop-opacity=".9"></stop>
      <stop offset="1" stop-color="#263d5d"></stop>
    </linearGradient>
    <linearGradient id="linear-gradient-4" x1="-16976.9" y1="-3716" x2="-17001.2" y2="-3716" xlink:href="#linear-gradient-3"></linearGradient>
    <linearGradient id="linear-gradient-5" x1="34" y1="-10725.2" x2="90.3" y2="-10725.2" gradientTransform="rotate(180 182.7 -5300.5)" gradientUnits="userSpaceOnUse">
      <stop offset="0" stop-color="#001b41"></stop>
      <stop offset="1" stop-color="#001b41" stop-opacity=".8"></stop>
    </linearGradient>
    <linearGradient id="linear-gradient-6" x1="31.9" y1="151.9" x2="70.2" y2="114.1" gradientTransform="matrix(-1 0 0 1 365.5 0)" gradientUnits="userSpaceOnUse">
      <stop offset="0" stop-color="#33abec"></stop>
      <stop offset=".4" stop-color="#2b90e8"></stop>
      <stop offset="1" stop-color="#87b8ee"></stop>
    </linearGradient>
    <linearGradient id="linear-gradient-7" x1="-958.4" y1="-256.9" x2="-958.4" y2="-258.3" gradientTransform="matrix(-.5 -.29 -.87 1.5 -172 -155.2)" gradientUnits="userSpaceOnUse">
      <stop offset="0" stop-color="#e7f9fc" stop-opacity=".1"></stop>
      <stop offset=".6" stop-color="#28cce8" stop-opacity=".8"></stop>
    </linearGradient>
    <linearGradient id="linear-gradient-8" x1="368.8" y1="-10818.9" x2="368.8" y2="-10631.6" gradientTransform="matrix(1 0 0 -1 57.9 -10601)" xlink:href="#linear-gradient-5"></linearGradient>
    <linearGradient id="linear-gradient-9" x1="370.6" y1="-10818.8" x2="370.6" y2="-10630" gradientTransform="matrix(1 0 0 -1 57.9 -10601)" xlink:href="#linear-gradient-5"></linearGradient>
    <linearGradient id="linear-gradient-10" x1="354.9" y1="123.9" x2="498.4" y2="123.9" xlink:href="#linear-gradient-5"></linearGradient>
    <linearGradient id="linear-gradient-11" x1="-3802.3" y1="1043.5" x2="-3866.5" y2="930.6" gradientTransform="matrix(-1 0 0 1 -3655.5 -623)" gradientUnits="userSpaceOnUse">
      <stop offset=".1" stop-color="#fff"></stop>
      <stop offset=".8" stop-color="#95a0b0"></stop>
      <stop offset=".8" stop-color="#98a3b2"></stop>
      <stop offset="1" stop-color="#9ca6b5"></stop>
    </linearGradient>
    <linearGradient id="linear-gradient-12" x1="4902.6" y1="-8065.7" x2="5055.6" y2="-8065.7" gradientTransform="matrix(0 .58 -1.73 0 -13742.4 -2612.8)" gradientUnits="userSpaceOnUse">
      <stop offset="0" stop-color="#3e4dda"></stop>
      <stop offset="1" stop-color="#091471"></stop>
    </linearGradient>
    <linearGradient id="linear-gradient-13" x1="-3796.9" y1="-14580.2" x2="-3796.9" y2="-14585.6" gradientTransform="matrix(-.87 .5 -1 -.58 -17613.4 -6288.3)" gradientUnits="userSpaceOnUse">
      <stop offset="0" stop-color="#e7f9fc" stop-opacity="0"></stop>
      <stop offset="1" stop-color="#28cce8" stop-opacity=".5"></stop>
    </linearGradient>
    <linearGradient id="linear-gradient-14" x1="-3796.9" y1="-14572.9" x2="-3796.9" y2="-14578.3" xlink:href="#linear-gradient-13"></linearGradient>
    <linearGradient id="linear-gradient-15" x1="-3796.9" y1="-14565.6" x2="-3796.9" y2="-14571" xlink:href="#linear-gradient-13"></linearGradient>
    <linearGradient id="linear-gradient-16" x1="-3796.8" y1="-14558.4" x2="-3796.8" y2="-14563.8" xlink:href="#linear-gradient-13"></linearGradient>
    <linearGradient id="linear-gradient-17" x1="-3796.8" y1="-14536.6" x2="-3796.8" y2="-14542" xlink:href="#linear-gradient-13"></linearGradient>
    <linearGradient id="linear-gradient-18" x1="-3796.8" y1="-14529.3" x2="-3796.8" y2="-14534.7" xlink:href="#linear-gradient-13"></linearGradient>
    <linearGradient id="linear-gradient-19" x1="-3796.8" y1="-14522.1" x2="-3796.8" y2="-14527.5" xlink:href="#linear-gradient-13"></linearGradient>
    <linearGradient id="linear-gradient-20" x1="-3796.7" y1="-14514.8" x2="-3796.7" y2="-14520.2" xlink:href="#linear-gradient-13"></linearGradient>
    <linearGradient id="linear-gradient-21" x1="-3786.6" y1="-14580.2" x2="-3786.6" y2="-14585.6" xlink:href="#linear-gradient-13"></linearGradient>
    <linearGradient id="linear-gradient-22" x1="-3786.6" y1="-14572.9" x2="-3786.6" y2="-14578.3" xlink:href="#linear-gradient-13"></linearGradient>
    <linearGradient id="linear-gradient-23" x1="-3786.5" y1="-14522.1" x2="-3786.5" y2="-14527.5" xlink:href="#linear-gradient-13"></linearGradient>
    <linearGradient id="linear-gradient-24" x1="-3786.4" y1="-14514.8" x2="-3786.4" y2="-14520.2" xlink:href="#linear-gradient-13"></linearGradient>
    <linearGradient id="linear-gradient-25" x1="-3776.3" y1="-14580.2" x2="-3776.3" y2="-14585.6" xlink:href="#linear-gradient-13"></linearGradient>
    <linearGradient id="linear-gradient-26" x1="-3776.2" y1="-14514.8" x2="-3776.2" y2="-14520.2" xlink:href="#linear-gradient-13"></linearGradient>
    <linearGradient id="linear-gradient-27" x1="-3765.9" y1="-14514.8" x2="-3765.9" y2="-14520.2" xlink:href="#linear-gradient-13"></linearGradient>
    <linearGradient id="linear-gradient-28" x1="-3755.7" y1="-14529.3" x2="-3755.7" y2="-14534.7" xlink:href="#linear-gradient-13"></linearGradient>
    <linearGradient id="linear-gradient-29" x1="-3755.7" y1="-14522.1" x2="-3755.7" y2="-14527.5" xlink:href="#linear-gradient-13"></linearGradient>
    <linearGradient id="linear-gradient-30" x1="-3755.6" y1="-14514.8" x2="-3755.6" y2="-14520.2" xlink:href="#linear-gradient-13"></linearGradient>
    <linearGradient id="linear-gradient-31" x1="-3745.4" y1="-14536.6" x2="-3745.4" y2="-14542" xlink:href="#linear-gradient-13"></linearGradient>
    <linearGradient id="linear-gradient-32" x1="-3745.4" y1="-14529.3" x2="-3745.4" y2="-14534.7" xlink:href="#linear-gradient-13"></linearGradient>
    <linearGradient id="linear-gradient-33" x1="-3745.4" y1="-14522.1" x2="-3745.4" y2="-14527.5" xlink:href="#linear-gradient-13"></linearGradient>
    <linearGradient id="linear-gradient-34" x1="-3745.4" y1="-14514.8" x2="-3745.4" y2="-14520.2" xlink:href="#linear-gradient-13"></linearGradient>
    <linearGradient id="linear-gradient-35" x1="-3735.2" y1="-14543.9" x2="-3735.2" y2="-14549.2" xlink:href="#linear-gradient-13"></linearGradient>
    <linearGradient id="linear-gradient-36" x1="-3735.2" y1="-14536.6" x2="-3735.2" y2="-14542" xlink:href="#linear-gradient-13"></linearGradient>
    <linearGradient id="linear-gradient-37" x1="-3735.1" y1="-14529.3" x2="-3735.1" y2="-14534.7" xlink:href="#linear-gradient-13"></linearGradient>
    <linearGradient id="linear-gradient-38" x1="-3735.1" y1="-14522.1" x2="-3735.1" y2="-14527.5" xlink:href="#linear-gradient-13"></linearGradient>
    <linearGradient id="linear-gradient-39" x1="-3735.1" y1="-14514.8" x2="-3735.1" y2="-14520.2" xlink:href="#linear-gradient-13"></linearGradient>
    <linearGradient id="linear-gradient-40" x1="-3724.9" y1="-14551.1" x2="-3724.9" y2="-14556.5" xlink:href="#linear-gradient-13"></linearGradient>
    <linearGradient id="linear-gradient-41" x1="-3724.9" y1="-14543.9" x2="-3724.9" y2="-14549.3" xlink:href="#linear-gradient-13"></linearGradient>
    <linearGradient id="linear-gradient-42" x1="-3724.9" y1="-14536.6" x2="-3724.9" y2="-14542" xlink:href="#linear-gradient-13"></linearGradient>
    <linearGradient id="linear-gradient-43" x1="-3724.9" y1="-14529.3" x2="-3724.9" y2="-14534.7" xlink:href="#linear-gradient-13"></linearGradient>
    <linearGradient id="linear-gradient-44" x1="-3724.8" y1="-14522.1" x2="-3724.8" y2="-14527.5" xlink:href="#linear-gradient-13"></linearGradient>
    <linearGradient id="linear-gradient-45" x1="-3724.8" y1="-14514.8" x2="-3724.8" y2="-14520.2" xlink:href="#linear-gradient-13"></linearGradient>
    <linearGradient id="linear-gradient-46" x1="-3796.8" y1="-14551.1" x2="-3796.8" y2="-14556.5" xlink:href="#linear-gradient-13"></linearGradient>
    <linearGradient id="linear-gradient-47" x1="-3796.8" y1="-14543.9" x2="-3796.8" y2="-14549.2" xlink:href="#linear-gradient-13"></linearGradient>
    <linearGradient id="linear-gradient-48" x1="-3786.6" y1="-14565.6" x2="-3786.6" y2="-14571" xlink:href="#linear-gradient-13"></linearGradient>
    <linearGradient id="linear-gradient-49" x1="-3786.6" y1="-14558.4" x2="-3786.6" y2="-14563.8" xlink:href="#linear-gradient-13"></linearGradient>
    <linearGradient id="linear-gradient-50" x1="-3786.6" y1="-14551.1" x2="-3786.6" y2="-14556.5" xlink:href="#linear-gradient-13"></linearGradient>
    <linearGradient id="linear-gradient-51" x1="-3786.5" y1="-14543.9" x2="-3786.5" y2="-14549.2" xlink:href="#linear-gradient-13"></linearGradient>
    <linearGradient id="linear-gradient-52" x1="-3786.5" y1="-14536.6" x2="-3786.5" y2="-14542" xlink:href="#linear-gradient-13"></linearGradient>
    <linearGradient id="linear-gradient-53" x1="-3786.5" y1="-14529.3" x2="-3786.5" y2="-14534.7" xlink:href="#linear-gradient-13"></linearGradient>
    <linearGradient id="linear-gradient-54" x1="-3776.3" y1="-14572.9" x2="-3776.3" y2="-14578.3" xlink:href="#linear-gradient-13"></linearGradient>
    <linearGradient id="linear-gradient-55" x1="-3776.3" y1="-14565.6" x2="-3776.3" y2="-14571" xlink:href="#linear-gradient-13"></linearGradient>
    <linearGradient id="linear-gradient-56" x1="-3776.3" y1="-14558.4" x2="-3776.3" y2="-14563.8" xlink:href="#linear-gradient-13"></linearGradient>
    <linearGradient id="linear-gradient-57" x1="-3776.3" y1="-14551.1" x2="-3776.3" y2="-14556.5" xlink:href="#linear-gradient-13"></linearGradient>
    <linearGradient id="linear-gradient-58" x1="-3776.3" y1="-14543.9" x2="-3776.3" y2="-14549.3" xlink:href="#linear-gradient-13"></linearGradient>
    <linearGradient id="linear-gradient-59" x1="-3776.2" y1="-14536.6" x2="-3776.2" y2="-14542" xlink:href="#linear-gradient-13"></linearGradient>
    <linearGradient id="linear-gradient-60" x1="-3776.2" y1="-14529.3" x2="-3776.2" y2="-14534.7" xlink:href="#linear-gradient-13"></linearGradient>
    <linearGradient id="linear-gradient-61" x1="-3776.2" y1="-14522.1" x2="-3776.2" y2="-14527.5" xlink:href="#linear-gradient-13"></linearGradient>
    <linearGradient id="linear-gradient-62" x1="-3766.1" y1="-14580.2" x2="-3766.1" y2="-14585.6" xlink:href="#linear-gradient-13"></linearGradient>
    <linearGradient id="linear-gradient-63" x1="-3766.1" y1="-14572.9" x2="-3766.1" y2="-14578.3" xlink:href="#linear-gradient-13"></linearGradient>
    <linearGradient id="linear-gradient-64" x1="-3766.1" y1="-14565.6" x2="-3766.1" y2="-14571" xlink:href="#linear-gradient-13"></linearGradient>
    <linearGradient id="linear-gradient-65" x1="-3766" y1="-14558.4" x2="-3766" y2="-14563.8" xlink:href="#linear-gradient-13"></linearGradient>
    <linearGradient id="linear-gradient-66" x1="-3766" y1="-14551.1" x2="-3766" y2="-14556.5" xlink:href="#linear-gradient-13"></linearGradient>
    <linearGradient id="linear-gradient-67" x1="-3766" y1="-14543.9" x2="-3766" y2="-14549.3" xlink:href="#linear-gradient-13"></linearGradient>
    <linearGradient id="linear-gradient-68" x1="-3766" y1="-14536.6" x2="-3766" y2="-14542" xlink:href="#linear-gradient-13"></linearGradient>
    <linearGradient id="linear-gradient-69" x1="-3765.9" y1="-14529.3" x2="-3765.9" y2="-14534.7" xlink:href="#linear-gradient-13"></linearGradient>
    <linearGradient id="linear-gradient-70" x1="-3765.9" y1="-14522.1" x2="-3765.9" y2="-14527.4" xlink:href="#linear-gradient-13"></linearGradient>
    <linearGradient id="linear-gradient-71" x1="-3755.8" y1="-14580.2" x2="-3755.8" y2="-14585.6" xlink:href="#linear-gradient-13"></linearGradient>
    <linearGradient id="linear-gradient-72" x1="-3755.8" y1="-14572.9" x2="-3755.8" y2="-14578.3" xlink:href="#linear-gradient-13"></linearGradient>
    <linearGradient id="linear-gradient-73" x1="-3755.8" y1="-14565.6" x2="-3755.8" y2="-14571" xlink:href="#linear-gradient-13"></linearGradient>
    <linearGradient id="linear-gradient-74" x1="-3755.8" y1="-14558.4" x2="-3755.8" y2="-14563.8" xlink:href="#linear-gradient-13"></linearGradient>
    <linearGradient id="linear-gradient-75" x1="-3755.7" y1="-14551.1" x2="-3755.7" y2="-14556.5" xlink:href="#linear-gradient-13"></linearGradient>
    <linearGradient id="linear-gradient-76" x1="-3755.7" y1="-14543.9" x2="-3755.7" y2="-14549.3" xlink:href="#linear-gradient-13"></linearGradient>
    <linearGradient id="linear-gradient-77" x1="-3755.7" y1="-14536.6" x2="-3755.7" y2="-14542" xlink:href="#linear-gradient-13"></linearGradient>
    <linearGradient id="linear-gradient-78" x1="-3745.5" y1="-14580.2" x2="-3745.5" y2="-14585.6" xlink:href="#linear-gradient-13"></linearGradient>
    <linearGradient id="linear-gradient-79" x1="-3745.5" y1="-14572.9" x2="-3745.5" y2="-14578.3" xlink:href="#linear-gradient-13"></linearGradient>
    <linearGradient id="linear-gradient-80" x1="-3745.5" y1="-14565.6" x2="-3745.5" y2="-14571" xlink:href="#linear-gradient-13"></linearGradient>
    <linearGradient id="linear-gradient-81" x1="-3745.5" y1="-14558.4" x2="-3745.5" y2="-14563.8" xlink:href="#linear-gradient-13"></linearGradient>
    <linearGradient id="linear-gradient-82" x1="-3745.5" y1="-14551.1" x2="-3745.5" y2="-14556.5" xlink:href="#linear-gradient-13"></linearGradient>
    <linearGradient id="linear-gradient-83" x1="-3745.4" y1="-14543.9" x2="-3745.4" y2="-14549.3" xlink:href="#linear-gradient-13"></linearGradient>
    <linearGradient id="linear-gradient-84" x1="-3735.3" y1="-14580.2" x2="-3735.3" y2="-14585.6" xlink:href="#linear-gradient-13"></linearGradient>
    <linearGradient id="linear-gradient-85" x1="-3735.3" y1="-14572.9" x2="-3735.3" y2="-14578.3" xlink:href="#linear-gradient-13"></linearGradient>
    <linearGradient id="linear-gradient-86" x1="-3735.2" y1="-14565.6" x2="-3735.2" y2="-14571" xlink:href="#linear-gradient-13"></linearGradient>
    <linearGradient id="linear-gradient-87" x1="-3735.2" y1="-14558.4" x2="-3735.2" y2="-14563.8" xlink:href="#linear-gradient-13"></linearGradient>
    <linearGradient id="linear-gradient-88" x1="-3735.2" y1="-14551.1" x2="-3735.2" y2="-14556.5" xlink:href="#linear-gradient-13"></linearGradient>
    <linearGradient id="linear-gradient-89" x1="-3725" y1="-14580.2" x2="-3725" y2="-14585.6" xlink:href="#linear-gradient-13"></linearGradient>
    <linearGradient id="linear-gradient-90" x1="-3725" y1="-14572.9" x2="-3725" y2="-14578.3" xlink:href="#linear-gradient-13"></linearGradient>
    <linearGradient id="linear-gradient-91" x1="-3725" y1="-14565.6" x2="-3725" y2="-14571" xlink:href="#linear-gradient-13"></linearGradient>
    <linearGradient id="linear-gradient-92" x1="-3724.9" y1="-14558.4" x2="-3724.9" y2="-14563.8" xlink:href="#linear-gradient-13"></linearGradient>
    <linearGradient id="linear-gradient-93" x1="-1392.7" y1="-10795.5" x2="-1423.7" y2="-10741.8" gradientTransform="rotate(180 -533.8 -5300.5)" gradientUnits="userSpaceOnUse">
      <stop offset=".3" stop-color="#ccc"></stop>
      <stop offset=".5" stop-color="#ccc"></stop>
      <stop offset=".9" stop-color="#ccc"></stop>
    </linearGradient>
    <radialGradient id="radial-gradient" cx="-1085" cy="-7831.1" r="41.6" gradientTransform="matrix(-.95 0 0 -2.12 -689.3 -16351.2)" gradientUnits="userSpaceOnUse">
      <stop offset=".4" stop-color="#aaadaf"></stop>
      <stop offset=".6" stop-color="#bfbebe"></stop>
      <stop offset=".8" stop-color="#c1bfbf"></stop>
    </radialGradient>
    <radialGradient id="radial-gradient-2" cx="-1084.6" cy="-7650.6" r="42.5" gradientTransform="matrix(-.95 0 0 -2.25 -689.3 -16985.8)" xlink:href="#radial-gradient"></radialGradient>
    <radialGradient id="radial-gradient-3" cx="-1085.5" cy="-8252" r="41.6" gradientTransform="matrix(-.95 0 0 -1.81 -689.3 -14736.1)" xlink:href="#radial-gradient"></radialGradient>
    <style>.cls-1{fill:none;stroke:#8cc63f;stroke-width:22px}.cls-1,.cls-5{stroke-miterlimit:10}.cls-2{opacity:.61}.cls-3{fill:url(#linear-gradient)}.cls-4{opacity:.71}.cls-5{fill:#f4f4f4;stroke-linecap:round;stroke-dasharray:5.08 4.06;stroke:url(#linear-gradient-2)}.cls-6,.cls-7,.cls-8{opacity:.2}.cls-6{fill:url(#linear-gradient-3)}.cls-7{fill:url(#linear-gradient-4)}.cls-119,.cls-32,.cls-8{fill:#718095}.cls-36,.cls-9{opacity:.9}.cls-10{opacity:.36;fill:url(#linear-gradient-5)}.cls-10,.cls-119,.cls-15,.cls-25,.cls-26,.cls-27,.cls-30,.cls-33,.cls-36{isolation:isolate}.cls-11{opacity:.85;fill:url(#linear-gradient-6)}.cls-12,.cls-15{fill:#f6f7f8}.cls-13{opacity:.6}.cls-14,.cls-25,.cls-26,.cls-27,.cls-30{opacity:.8}.cls-15,.cls-31{opacity:.2}.cls-16{fill:url(#linear-gradient-7)}.cls-17,.cls-23,.cls-30{fill:#fff}.cls-18{opacity:.91}.cls-19,.cls-20{opacity:.42}.cls-19{fill:url(#linear-gradient-8)}.cls-20{fill:url(#linear-gradient-9)}.cls-21{fill:url(#linear-gradient-10)}.cls-22{fill:#878787}.cls-23{fill-opacity:0}.cls-129,.cls-24,.cls-33{opacity:.5}.cls-25{fill:#f965a8}.cls-26,.cls-29{fill:#11c7e6}.cls-27{fill:#ddb201}.cls-28{fill:#3ae0c0}.cls-33{fill:url(#linear-gradient-11)}.cls-34{fill:#293c51}.cls-35{fill:#25323f}.cls-36{fill:url(#linear-gradient-12)}.cls-37{fill:#18273a}.cls-38{fill:url(#linear-gradient-13)}.cls-39{fill:url(#linear-gradient-14)}.cls-40{fill:url(#linear-gradient-15)}.cls-41{fill:url(#linear-gradient-16)}.cls-42{fill:url(#linear-gradient-17)}.cls-43{fill:url(#linear-gradient-18)}.cls-44{fill:url(#linear-gradient-19)}.cls-45{fill:url(#linear-gradient-20)}.cls-46{fill:url(#linear-gradient-21)}.cls-47{fill:url(#linear-gradient-22)}.cls-48{fill:url(#linear-gradient-23)}.cls-49{fill:url(#linear-gradient-24)}.cls-50{fill:url(#linear-gradient-25)}.cls-51{fill:url(#linear-gradient-26)}.cls-52{fill:url(#linear-gradient-27)}.cls-53{fill:url(#linear-gradient-28)}.cls-54{fill:url(#linear-gradient-29)}.cls-55{fill:url(#linear-gradient-30)}.cls-56{fill:url(#linear-gradient-31)}.cls-57{fill:url(#linear-gradient-32)}.cls-58{fill:url(#linear-gradient-33)}.cls-59{fill:url(#linear-gradient-34)}.cls-60{fill:url(#linear-gradient-35)}.cls-61{fill:url(#linear-gradient-36)}.cls-62{fill:url(#linear-gradient-37)}.cls-63{fill:url(#linear-gradient-38)}.cls-64{fill:url(#linear-gradient-39)}.cls-65{fill:url(#linear-gradient-40)}.cls-66{fill:url(#linear-gradient-41)}.cls-67{fill:url(#linear-gradient-42)}.cls-68{fill:url(#linear-gradient-43)}.cls-69{fill:url(#linear-gradient-44)}.cls-70{fill:url(#linear-gradient-45)}.cls-71{fill:url(#linear-gradient-46)}.cls-72{fill:url(#linear-gradient-47)}.cls-73{fill:url(#linear-gradient-48)}.cls-74{fill:url(#linear-gradient-49)}.cls-75{fill:url(#linear-gradient-50)}.cls-76{fill:url(#linear-gradient-51)}.cls-77{fill:url(#linear-gradient-52)}.cls-78{fill:url(#linear-gradient-53)}.cls-79{fill:url(#linear-gradient-54)}.cls-80{fill:url(#linear-gradient-55)}.cls-81{fill:url(#linear-gradient-56)}.cls-82{fill:url(#linear-gradient-57)}.cls-83{fill:url(#linear-gradient-58)}.cls-84{fill:url(#linear-gradient-59)}.cls-85{fill:url(#linear-gradient-60)}.cls-86{fill:url(#linear-gradient-61)}.cls-87{fill:url(#linear-gradient-62)}.cls-88{fill:url(#linear-gradient-63)}.cls-89{fill:url(#linear-gradient-64)}.cls-90{fill:url(#linear-gradient-65)}.cls-91{fill:url(#linear-gradient-66)}.cls-92{fill:url(#linear-gradient-67)}.cls-93{fill:url(#linear-gradient-68)}.cls-94{fill:url(#linear-gradient-69)}.cls-95{fill:url(#linear-gradient-70)}.cls-96{fill:url(#linear-gradient-71)}.cls-97{fill:url(#linear-gradient-72)}.cls-98{fill:url(#linear-gradient-73)}.cls-99{fill:url(#linear-gradient-74)}.cls-100{fill:url(#linear-gradient-75)}.cls-101{fill:url(#linear-gradient-76)}.cls-102{fill:url(#linear-gradient-77)}.cls-103{fill:url(#linear-gradient-78)}.cls-104{fill:url(#linear-gradient-79)}.cls-105{fill:url(#linear-gradient-80)}.cls-106{fill:url(#linear-gradient-81)}.cls-107{fill:url(#linear-gradient-82)}.cls-108{fill:url(#linear-gradient-83)}.cls-109{fill:url(#linear-gradient-84)}.cls-110{fill:url(#linear-gradient-85)}.cls-111{fill:url(#linear-gradient-86)}.cls-112{fill:url(#linear-gradient-87)}.cls-113{fill:url(#linear-gradient-88)}.cls-114{fill:url(#linear-gradient-89)}.cls-115{fill:url(#linear-gradient-90)}.cls-116{fill:url(#linear-gradient-91)}.cls-117{fill:url(#linear-gradient-92)}.cls-118{fill:#223342}.cls-119{opacity:.3}.cls-120{fill:#231f20}.cls-121{fill:#367faf}.cls-122,.cls-129{fill:#666}.cls-123{fill:url(#radial-gradient)}.cls-124{fill:#d8d8d8}.cls-125{fill:#80c5da}.cls-126{fill:#8edaf2}.cls-127{fill:url(#radial-gradient-2)}.cls-128{fill:url(#radial-gradient-3)}.cls-130{fill:url(#linear-gradient-93)}.cls-131{fill:#336791}.cls-132{fill:#e3e4e5}</style>
  </defs>
  <path class="cls-1" d="M-76.1-43.8h701v1386.4h-701z" id="Layer_2" data-name="Layer 2"></path>
  <g id="Layer_1" data-name="Layer 1">
    <g class="cls-2">
      <path class="cls-3" d="M219.5 28.7a59.4 59.4 0 01-.7 8.8c14.6-5.3 25.6 3.2 25.6 21a70.2 70.2 0 01-31.8 54.8l-106.5 61.5c-15.4 9-28 1.7-27.9-16.1s12.7-39.5 28.1-48.4l.7-.4a31.6 31.6 0 01-.5-5.8 60 60 0 0127.2-47 24.8 24.8 0 0112.3-3.6c6-19 19.5-37.8 35.2-46.9 21.3-12.2 38.4-2.3 38.3 22.1z"></path>
    </g>
    <g class="cls-4">
      <path class="cls-5" d="M227.8 33.5a58.4 58.4 0 01-.8 8.8c14.7-5.3 25.7 3.2 25.6 21a70 70 0 01-31.8 54.8l-106.4 61.5c-15.5 9-28 1.7-28-16.1s12.7-39.5 28.2-48.4l.7-.4a31.6 31.6 0 01-.5-5.8A60.2 60.2 0 01142 62a24.4 24.4 0 0112.3-3.7c6-19 19.5-37.8 35.2-46.9 21.2-12.2 38.3-2.3 38.3 22.1z"></path>
    </g>
    <path class="cls-6" d="M180.8 121.2c-.7.4-1.2-.3-.8-1.3l4.7-11.4 4.9-11.7c.4-1 1.2-1.4 1.6-1l4.8 6.2 4.7 6c.4.5 0 1.8-.8 2.2l-9.6 5.5z"></path>
    <path class="cls-7" d="M135.4 147.6c-.7.5-1.2-.2-.8-1.2l4.7-11.5 4.9-11.7c.3-.9 1.2-1.4 1.6-.9l4.8 6.1 4.8 6c.4.5-.1 1.8-.9 2.2l-9.5 5.5z"></path>
    <path class="cls-8" d="M147.6 218.6a5.2 5.2 0 01-2.7-4.5v-71.9l1.7-1.1v73a3.5 3.5 0 001.8 3l44 24.7-1 1.5zM192.2 192.4a5.2 5.2 0 01-2.7-4.5v-71.7l1.7-1v72.7a3.5 3.5 0 001.8 3l44 24.7-1 1.5z"></path>
    <g class="cls-9">
      <path class="cls-10" d="M276 164.5l58.4-33.7a1.3 1.3 0 00.5-1V84.3a.9.9 0 000-.3.3.3 0 00-.1-.1.2.2 0 00-.2 0 .5.5 0 00-.2 0L276 117.7a1.2 1.2 0 00-.5 1V164a.6.6 0 000 .2.4.4 0 000 .2.4.4 0 00.2 0z"></path>
      <path class="cls-11" d="M278 166.3l58.5-33.8a1.2 1.2 0 00.5-1V86a.9.9 0 000-.2.2.2 0 000-.2.3.3 0 00-.2 0 .5.5 0 00-.2 0L278 119.4a1.2 1.2 0 00-.5 1v45.5a.6.6 0 000 .2.2.2 0 000 .2.3.3 0 00.2 0 .5.5 0 00.3 0z"></path>
      <ellipse class="cls-12" cx="284.2" cy="118.7" rx=".8" ry=".5" transform="rotate(-60 284.2 118.6)"></ellipse>
      <ellipse class="cls-12" cx="282.3" cy="119.8" rx=".8" ry=".5" transform="rotate(-60 282.3 119.8)"></ellipse>
      <ellipse class="cls-12" cx="280.4" cy="120.9" rx=".8" ry=".5" transform="rotate(-60 280.4 120.9)"></ellipse>
      <g class="cls-13">
        <g class="cls-14">
          <path class="cls-12" d="M320.5 107.8a.3.3 0 01-.3-.2.3.3 0 01.1-.4 2.1 2.1 0 00.5-.5 2.6 2.6 0 01.6-.6.5.5 0 01.8 0 2.4 2.4 0 00.4-.5 2.5 2.5 0 01.7-.6.5.5 0 01.7 0 2 2 0 00.5-.5 2.6 2.6 0 01.7-.7.5.5 0 01.7 0 2 2 0 00.4-.4 2.9 2.9 0 01.7-.7.6.6 0 01.7 0 2.1 2.1 0 00.5-.5 2.6 2.6 0 01.7-.6c.4-.2.6 0 .7 0a1.9 1.9 0 00.5-.5 2.7 2.7 0 01.7-.6.3.3 0 01.4 0 .3.3 0 01-.1.5 2.1 2.1 0 00-.5.5 2.4 2.4 0 01-.7.7.6.6 0 01-.7 0 2 2 0 00-.5.4 2.2 2.2 0 01-.6.7.6.6 0 01-.8 0 2.4 2.4 0 00-.5.5 2.5 2.5 0 01-.6.6.5.5 0 01-.7 0 1.9 1.9 0 00-.5.5 2.5 2.5 0 01-.7.6.5.5 0 01-.7 0 2.6 2.6 0 00-.5.5 2.6 2.6 0 01-.6.6.5.5 0 01-.7 0 2.3 2.3 0 00-.5.5 2.5 2.5 0 01-.7.6.3.3 0 01-.1.1zm1.3-1.2z"></path>
        </g>
        <g class="cls-14">
          <path class="cls-12" d="M326 106.5a.3.3 0 01-.2-.2.3.3 0 01.1-.5.8.8 0 00.2-.1 1.3 1.3 0 01.3-.4.5.5 0 01.5 0 1 1 0 01.4-.4.5.5 0 01.4 0l.1-.2a1.3 1.3 0 01.4-.4.4.4 0 01.4 0 1.3 1.3 0 01.4-.4.5.5 0 01.4 0l.1-.2a1.5 1.5 0 01.4-.3.5.5 0 01.4 0l.1-.1a1.3 1.3 0 01.4-.4.3.3 0 01.4.1.3.3 0 01-.1.5.7.7 0 00-.2.2 2 2 0 01-.3.3.4.4 0 01-.4 0h-.2a1.5 1.5 0 01-.3.3.4.4 0 01-.5.1.6.6 0 000 .1 1.6 1.6 0 01-.4.3.4.4 0 01-.4.1l-.1.1a1.5 1.5 0 01-.4.4.5.5 0 01-.4 0v.2a1.2 1.2 0 01-.4.3.4.4 0 01-.5 0v.1a1.3 1.3 0 01-.4.4.3.3 0 01-.1 0z"></path>
        </g>
      </g>
      <g class="cls-13">
        <g class="cls-14">
          <path class="cls-12" d="M282.3 152.7a.3.3 0 01-.3-.2.3.3 0 01.1-.4 2.1 2.1 0 00.5-.5 2.7 2.7 0 01.7-.6.5.5 0 01.7 0 2 2 0 00.5-.5 2.5 2.5 0 01.6-.6.5.5 0 01.8 0 2.1 2.1 0 00.5-.5 2.4 2.4 0 01.6-.6.6.6 0 01.7 0 1.7 1.7 0 00.5-.5 2.7 2.7 0 01.7-.6.5.5 0 01.7 0 2.4 2.4 0 00.5-.5 2.6 2.6 0 01.6-.6.5.5 0 01.8 0 1.8 1.8 0 00.5-.5 2.5 2.5 0 01.6-.7.3.3 0 01.5.2.3.3 0 01-.1.4 1.8 1.8 0 00-.5.5 2.4 2.4 0 01-.7.7.6.6 0 01-.7-.1 2.5 2.5 0 00-.6.5 2.3 2.3 0 01-.6.6.5.5 0 01-.7 0 2.4 2.4 0 00-.5.5 2.3 2.3 0 01-.6.7.5.5 0 01-.8 0 2 2 0 00-.4.4 2.4 2.4 0 01-.7.7.5.5 0 01-.7 0 2.5 2.5 0 00-.5.4 2.4 2.4 0 01-.7.7.6.6 0 01-.7 0 2.2 2.2 0 00-.5.4 2.4 2.4 0 01-.6.7.3.3 0 01-.2 0z"></path>
        </g>
        <g class="cls-14">
          <path class="cls-12" d="M288 151.3a.3.3 0 01-.4-.1.3.3 0 01.2-.5 1.1 1.1 0 00.1-.2 1.3 1.3 0 01.4-.3.4.4 0 01.4 0v-.1a1.1 1.1 0 01.4-.3.5.5 0 01.4-.1l.1-.1a1.3 1.3 0 01.4-.4.5.5 0 01.4 0l.1-.1a1.4 1.4 0 01.4-.4.5.5 0 01.4 0 1.5 1.5 0 01.4-.4.5.5 0 01.4 0l.1-.2a1.1 1.1 0 01.4-.4.3.3 0 01.4.2.3.3 0 010 .4.8.8 0 00-.2.2 1.5 1.5 0 01-.4.3.5.5 0 01-.4 0l-.1.2a1.7 1.7 0 01-.3.3.5.5 0 01-.5.1 1.3 1.3 0 000 .2 1.4 1.4 0 01-.4.3.4.4 0 01-.4 0l-.2.2a1.7 1.7 0 01-.3.3.4.4 0 01-.4 0l-.1.2a1.1 1.1 0 01-.4.4.5.5 0 01-.4 0 1.3 1.3 0 01-.4.4.5.5 0 01-.2 0z"></path>
        </g>
      </g>
      <path class="cls-15" d="M325.1 112.5l3.8-2.2v-3 3l-3.8 2.3v-.1z"></path>
      <path class="cls-16" d="M286.8 155.5l5.4-3.1a1.2 1.2 0 00.5-1 .6.6 0 000-.2.3.3 0 00-.3-.3.5.5 0 00-.2 0l-5.4 3.2a1.1 1.1 0 00-.5 1 .5.5 0 000 .3.3.3 0 000 .1.2.2 0 00.2 0z"></path>
      <path class="cls-15" d="M287.4 143l4.6-2.6v.1l-4.6 2.6v2.4-2.5z"></path>
    </g>
    <path class="cls-17" d="M291.7 134.1v-1.5l8.2-9v1.5l-6.8 7.4 6.8-.5v1.6zm16.8-18.7l1.1-.7-6.8 22.8-1.2.7zm3.3 11.4v-1.5l6.8-7.5-6.8.5v-1.5l8.2-.5v1.5z"></path>
    <g id="Ebene_1" data-name="Ebene 1">
      <g class="cls-18">
        <path class="cls-19" d="M500.3 217.8L353 132.6a2 2 0 01-.8-1.5V31.3c0-.6.4-.9.8-.6l147.4 85a2 2 0 01.8 1.6V217c-.1.6-.4.9-.9.7z"></path>
        <path class="cls-20" d="M500.3 217.8c.5.2 4.2-1.5 4.2-2.1v-99.9a2 2 0 00-.8-1.5L356.3 29.2c-.4-.3-.5-.3-.9 0l-3 1.4v101.7z"></path>
      </g>
      <path class="cls-21" d="M498.4 213.5L355 130.4v-96l143.6 83.1v96z"></path>
      <ellipse class="cls-22" cx="360.1" cy="43.4" rx="1.2" ry="2.1" transform="rotate(-30 360 43.4)"></ellipse>
      <ellipse class="cls-22" cx="364.9" cy="46.2" rx="1.2" ry="2.1" transform="rotate(-30 365 46.2)"></ellipse>
      <ellipse class="cls-22" cx="370.5" cy="49.3" rx="1.2" ry="2.1" transform="rotate(-29.9 370.5 49.3)"></ellipse>
      <path class="cls-23" d="M490.6 202.8l-128.8-74.3v-77l128.8 74.3v77z"></path>
      <g class="cls-14">
        <path class="cls-17" d="M364.6 61v3.4l4.2 2.3v-3.4l-4.2-2.3zM364.6 68.3v3.4l4.2 2.4v-3.4l-4.2-2.4zM364.6 75.7V79l4.2 2.4V78l-4.2-2.4zM364.6 83v3.5l4.2 2.3v-3.4l-4.2-2.4zM364.6 90.4v3.4l4.2 2.4v-3.4l-4.2-2.4zM364.6 97.8v3.4l4.2 2.3v-3.4l-4.2-2.3zM364.6 105.1v3.4l4.2 2.4v-3.4l-4.2-2.4zM364.6 112.5v3.4l4.2 2.4v-3.5l-4.2-2.3zM364.6 119.8v3.4l4.2 2.4v-3.4l-4.2-2.4z"></path>
      </g>
      <g class="cls-24">
        <path class="cls-17" d="M371 131.2l-.4-.2V55.7l.4.2v75.3z"></path>
        <path class="cls-23" d="M487.8 127.6L362.7 55.4V55l125.1 72.2v.4z"></path>
      </g>
      <path class="cls-25" d="M384 72L374 66.2v3.4l10.2 5.8V72z"></path>
      <g class="cls-14">
        <path class="cls-17" d="M408.3 86l-21.7-12.5V77l21.7 12.5V86zM436.9 102.5v3.4l4.8 2.8v-3.4l-4.8-2.8z"></path>
      </g>
      <g class="cls-14">
        <path class="cls-17" d="M434.3 101l-23.5-13.5v3.4l23.5 13.5V101z"></path>
      </g>
      <path class="cls-26" d="M397.4 87.1L374 73.5V77l23.6 13.6v-3.4zM451 118l-51-29.4V92l51 29.5v-3.4z"></path>
      <path class="cls-27" d="M453.7 119.6v3.4l14.5 8.4v-3.5l-14.5-8.3z"></path>
      <g class="cls-14">
        <path class="cls-17" d="M403.2 97.8l-20.8-12v3.4l20.8 12v-3.4z"></path>
      </g>
      <path class="cls-25" d="M420.7 107.9l-15-8.6v3.4l15 8.6V108z"></path>
      <g class="cls-14">
        <path class="cls-17" d="M456.3 135.8v3.4l26.7 15.4v-3.4l-26.8-15.4z"></path>
      </g>
      <path class="cls-28" d="M382.4 100.5v3.4l60.2 34.8v-3.4l-60.2-34.8z"></path>
      <path class="cls-29" d="M424.3 132l-33.4-19.2v3.4l33.4 19.2V132zM426.9 133.5v3.4l50.8 29.4v-3.5l-50.8-29.3z"></path>
      <g class="cls-14">
        <path class="cls-17" d="M415.5 112.2l-33-19v3.4l33 19v-3.4z"></path>
      </g>
      <g class="cls-14">
        <path class="cls-17" d="M418 113.7v3.4l35.7 20.6v-3.4L418 113.7z"></path>
      </g>
      <path class="cls-30" d="M382.4 122.6v3.4l40.1 23.1v-3.4l-40-23.1z"></path>
      <path class="cls-29" d="M382.4 130v3.4l22 12.7v-3.4l-22-12.8z"></path>
      <path class="cls-25" d="M399 124.8l-8.1-4.7v3.4l8 4.7v-3.4z"></path>
      <path class="cls-30" d="M446 152l-44.5-25.7v3.4l44.5 25.7v-3.5zM471.9 166.9v3.4l15.5 9v-3.4l-15.5-9z"></path>
      <path class="cls-25" d="M469.3 165.4l-20.7-12v3.5l20.7 12v-3.5z"></path>
    </g>
    <g class="cls-31">
      <path class="cls-32" d="M206 396.8L72 319.5a5.5 5.5 0 010-9.5l259-149.7a16 16 0 0116 0L480.3 237a4.7 4.7 0 011.7 1.7 4.6 4.6 0 01-1.7 6.3L217.3 396.8a11.2 11.2 0 01-11.2 0zm125.8-235.4l-259 149.8a4.2 4.2 0 00-1.6 1.5 4.2 4.2 0 001.6 5.7l134 77.2a10 10 0 009.8 0l263-151.6a3.3 3.3 0 001.2-4.5 3.3 3.3 0 00-1.2-1.2l-133-76.9a14.7 14.7 0 00-14.8 0z"></path>
      <ellipse class="cls-32" cx="133.1" cy="275.6" rx="3.1" ry="1.8"></ellipse>
    </g>
    <path class="cls-33" d="M95.8 314.6l96.6-55.7 118.3 69-96.6 55.7-118.3-69z"></path>
    <path class="cls-34" d="M117.5 280.8L214 225l96.6 55.8-96.6 55.8-96.6-55.8z"></path>
    <path class="cls-35" d="M214 328.3l94.7-55.1 2 .5-.1 44.7-96.6 55.5v-45.6z"></path>
    <path class="cls-34" d="M110.7 269l96.6-55.8 103.4 60.2-96.6 55.8-103.4-60.3z"></path>
    <path class="cls-36" d="M218.5 312.9l67.1-38.8c3.2-1.8 2.8-5-.9-7.2l-68.2-39.4c-3.7-2.1-9.3-2.4-12.5-.5l-67.1 38.7c-3.2 1.9-2.8 5.1.9 7.3l68.2 39.3c3.7 2.2 9.3 2.4 12.5.6z"></path>
    <path class="cls-37" d="M285.6 274.1a5.5 5.5 0 001-.7c2-2 1.3-4.6-2-6.5l-68.1-39.4c-3.7-2.1-9.3-2.4-12.5-.5l-.6.3-66.5 38.4c-2.4 1.4-2.8 3.6-1.2 5.5l71.5-39.8a5.2 5.2 0 015.1 0z"></path>
    <path class="cls-38" d="M275.2 275.8l5.3-3-5.3-3.2-5.4 3.1 5.4 3.1z"></path>
    <path class="cls-39" d="M267.9 271.6l5.4-3-5.4-3.2-5.4 3.1 5.4 3.1z"></path>
    <path class="cls-40" d="M260.6 267.4l5.4-3-5.4-3.2-5.4 3.2 5.4 3z"></path>
    <path class="cls-41" d="M253.4 263.3l5.3-3.2-5.3-3-5.4 3 5.4 3.2z"></path>
    <path class="cls-42" d="M231.6 250.7l5.4-3.1-5.4-3.1-5.4 3 5.4 3.2z"></path>
    <path class="cls-43" d="M224.3 246.5l5.4-3.1-5.4-3.1-5.4 3 5.4 3.2z"></path>
    <path class="cls-44" d="M217 242.3l5.4-3.1-5.3-3.1-5.4 3 5.4 3.2z"></path>
    <path class="cls-45" d="M209.8 238l5.4-3-5.4-3.1-5.4 3 5.4 3.2z"></path>
    <path class="cls-46" d="M266.3 281l5.3-3.1-5.4-3.1-5.3 3 5.4 3.2z"></path>
    <path class="cls-47" d="M259 276.8l5.4-3.1-5.4-3.1-5.4 3 5.4 3.2z"></path>
    <path class="cls-48" d="M208.1 247.4l5.4-3-5.4-3.2-5.3 3.1 5.3 3.1z"></path>
    <path class="cls-49" d="M200.9 243.2l5.3-3-5.3-3.2-5.4 3.1 5.4 3.1z"></path>
    <path class="cls-50" d="M257.3 286.1l5.4-3-5.4-3.2-5.3 3.1 5.3 3.1z"></path>
    <path class="cls-51" d="M192 248.4l5.3-3.1-5.4-3.1-5.3 3 5.3 3.2z"></path>
    <path class="cls-52" d="M183 253.5l5.4-3-5.4-3.2-5.3 3.1 5.3 3.1z"></path>
    <path class="cls-53" d="M188.7 267l5.3-3-5.3-3.1-5.4 3 5.3 3.2z"></path>
    <path class="cls-54" d="M181.4 262.9l5.4-3.1-5.4-3.1-5.4 3 5.4 3.2z"></path>
    <path class="cls-55" d="M174.1 258.7l5.4-3.1-5.4-3.1-5.4 3 5.4 3.2z"></path>
    <path class="cls-56" d="M187 276.4l5.4-3-5.4-3.2-5.4 3.1 5.4 3.1z"></path>
    <path class="cls-57" d="M179.7 272.2l5.4-3-5.4-3.2-5.3 3.1 5.3 3.1z"></path>
    <path class="cls-58" d="M172.5 268l5.3-3-5.3-3.2-5.4 3.1 5.4 3.1z"></path>
    <path class="cls-59" d="M165.2 263.8l5.4-3-5.4-3.2-5.4 3.1 5.4 3.1z"></path>
    <path class="cls-60" d="M185.3 285.8l5.4-3.2-5.4-3-5.3 3 5.3 3.1z"></path>
    <path class="cls-61" d="M178 281.6l5.5-3.2-5.4-3-5.4 3 5.4 3.2z"></path>
    <path class="cls-62" d="M170.8 277.4l5.4-3.1-5.4-3.1-5.4 3 5.4 3.2z"></path>
    <path class="cls-63" d="M163.6 273.2l5.3-3.1-5.3-3.1-5.4 3 5.4 3.2z"></path>
    <path class="cls-64" d="M156.3 269l5.4-3.1-5.4-3.1-5.4 3 5.4 3.2z"></path>
    <path class="cls-65" d="M183.7 295.1l5.4-3.1-5.4-3.1-5.4 3 5.4 3.2z"></path>
    <path class="cls-66" d="M176.4 291l5.4-3.2-5.4-3.1-5.3 3.1 5.3 3.1z"></path>
    <path class="cls-67" d="M169.2 286.7l5.4-3.1-5.4-3.1-5.4 3.1 5.4 3.1z"></path>
    <path class="cls-68" d="M161.9 282.5l5.4-3-5.4-3.2-5.4 3.1 5.4 3.1z"></path>
    <path class="cls-69" d="M154.6 278.3l5.4-3-5.4-3.2-5.3 3.1 5.3 3.1z"></path>
    <path class="cls-70" d="M147.4 274.1l5.3-3-5.3-3.2-5.4 3.1 5.4 3.1z"></path>
    <path class="cls-71" d="M246.1 259l5.4-3-5.4-3.2-5.4 3.2 5.4 3z"></path>
    <path class="cls-72" d="M238.8 254.9l5.4-3.1-5.4-3.1-5.3 3 5.3 3.2z"></path>
    <path class="cls-73" d="M251.7 272.6l5.4-3.1-5.4-3.1-5.4 3.1 5.4 3.1z"></path>
    <path class="cls-74" d="M244.5 268.4l5.3-3.1-5.3-3.1-5.4 3.1 5.4 3.1z"></path>
    <path class="cls-75" d="M237.2 264.2l5.4-3-5.4-3.2-5.4 3.1 5.4 3.1z"></path>
    <path class="cls-76" d="M230 260l5.3-3-5.4-3.2-5.3 3.1 5.3 3.1z"></path>
    <path class="cls-77" d="M222.7 255.8l5.3-3-5.3-3.2-5.4 3.1 5.4 3.1z"></path>
    <path class="cls-78" d="M215.4 251.6l5.4-3-5.4-3.2-5.4 3.1 5.4 3.1z"></path>
    <path class="cls-79" d="M250 282l5.4-3.2-5.3-3-5.4 3 5.4 3.1z"></path>
    <path class="cls-80" d="M242.8 277.8l5.4-3.2-5.4-3-5.4 3 5.4 3.1z"></path>
    <path class="cls-81" d="M235.5 273.6l5.4-3.2-5.4-3-5.3 3 5.3 3.2z"></path>
    <path class="cls-82" d="M228.3 269.4l5.4-3.1-5.4-3.2-5.4 3.1 5.4 3.2z"></path>
    <path class="cls-83" d="M221 265.2l5.4-3.1-5.4-3.2-5.4 3.2 5.4 3z"></path>
    <path class="cls-84" d="M213.8 261l5.3-3.1-5.3-3.1-5.4 3 5.3 3.2z"></path>
    <path class="cls-85" d="M206.5 256.8l5.4-3.1-5.4-3.1-5.4 3 5.4 3.2z"></path>
    <path class="cls-86" d="M199.2 252.6l5.4-3.1-5.4-3.1-5.4 3 5.4 3.2z"></path>
    <path class="cls-87" d="M248.4 291.3l5.4-3.1-5.4-3.1-5.4 3 5.4 3.2z"></path>
    <path class="cls-88" d="M241.2 287l5.3-3-5.3-3.1-5.4 3 5.4 3.2z"></path>
    <path class="cls-89" d="M233.9 282.9l5.4-3.1-5.4-3.1-5.4 3 5.4 3.2z"></path>
    <path class="cls-90" d="M226.6 278.7l5.4-3.1-5.4-3.1-5.3 3.1 5.3 3.1z"></path>
    <path class="cls-91" d="M219.4 274.5l5.3-3.1-5.3-3.1-5.4 3.1 5.4 3.1z"></path>
    <path class="cls-92" d="M212 270.3l5.5-3-5.4-3.2-5.4 3.1 5.4 3.1z"></path>
    <path class="cls-93" d="M204.8 266.1l5.4-3-5.4-3.2-5.4 3.1 5.4 3.1z"></path>
    <path class="cls-94" d="M197.6 262l5.3-3.2-5.3-3-5.4 3 5.4 3.1z"></path>
    <path class="cls-95" d="M190.3 257.7l5.4-3-5.4-3.2-5.4 3.1 5.4 3.1z"></path>
    <path class="cls-96" d="M239.5 296.4l5.4-3-5.4-3.2-5.4 3.1 5.4 3.1z"></path>
    <path class="cls-97" d="M232.2 292.2l5.4-3-5.4-3.2-5.3 3.1 5.3 3.1z"></path>
    <path class="cls-98" d="M225 288l5.3-3-5.3-3.2-5.4 3.1 5.4 3.1z"></path>
    <path class="cls-99" d="M217.7 283.9l5.4-3.2-5.4-3-5.4 3 5.4 3.2z"></path>
    <path class="cls-100" d="M210.4 279.6l5.4-3-5.4-3.2-5.3 3.1 5.3 3.1z"></path>
    <path class="cls-101" d="M203.2 275.5l5.4-3.1-5.4-3.1-5.4 3 5.4 3.2z"></path>
    <path class="cls-102" d="M196 271.3l5.3-3.1-5.4-3.1-5.4 3 5.4 3.2z"></path>
    <path class="cls-103" d="M230.6 301.6l5.4-3.1-5.4-3.1-5.4 3 5.4 3.2z"></path>
    <path class="cls-104" d="M223.3 297.4l5.4-3.1-5.4-3.1-5.4 3 5.4 3.2z"></path>
    <path class="cls-105" d="M216 293.2l5.4-3.1-5.3-3.1-5.4 3 5.4 3.2z"></path>
    <path class="cls-106" d="M208.8 289l5.4-3.1-5.4-3.1-5.4 3 5.4 3.2z"></path>
    <path class="cls-107" d="M201.5 284.8l5.4-3.1-5.4-3.1-5.3 3.1 5.3 3.1z"></path>
    <path class="cls-108" d="M194.3 280.6l5.3-3.1-5.3-3.1-5.4 3.1 5.4 3.1z"></path>
    <path class="cls-109" d="M221.7 306.7l5.4-3-5.4-3.2-5.4 3.1 5.4 3.1z"></path>
    <path class="cls-110" d="M214.4 302.5l5.4-3-5.4-3.2-5.4 3.1 5.4 3.1z"></path>
    <path class="cls-111" d="M207.1 298.3l5.4-3-5.4-3.2-5.3 3.1 5.3 3.1z"></path>
    <path class="cls-112" d="M199.9 294.1l5.3-3-5.3-3.2-5.4 3.1 5.4 3.1z"></path>
    <path class="cls-113" d="M192.6 290l5.4-3.2-5.4-3-5.4 3 5.4 3.1z"></path>
    <path class="cls-114" d="M212.8 311.9l5.3-3.1-5.3-3.1-5.4 3 5.3 3.2z"></path>
    <path class="cls-115" d="M205.5 307.7l5.4-3.1-5.4-3.1-5.4 3 5.4 3.2z"></path>
    <path class="cls-116" d="M198.2 303.5l5.4-3.1-5.4-3.1-5.4 3 5.4 3.2z"></path>
    <path class="cls-117" d="M191 299.3l5.3-3.1-5.3-3.1-5.4 3 5.4 3.2z"></path>
    <path class="cls-118" d="M214 328.9l-103.3-60.3v45L214 373.8v-45z"></path>
    <path class="cls-119" d="M206.9 334.3L115 282v27.4l91.9 52.3v-27.4zM221.5 334.7l84.4-49.3v26.4L221.5 361v-26.3z"></path>
    <path class="cls-34" d="M249.7 332.1c0-2.3 1.4-3.5 3-4.4l39-22.5c1.8-1 3.2-1.4 3.2.9 0 2.2-1.4 2.9-3.1 3.9l-39 22.5c-1.7 1-3.1 1.9-3.1-.4z"></path>
    <ellipse class="cls-17" cx="238.7" cy="337.4" rx="2.8" ry="1.6" transform="rotate(-60 238.6 337.4)"></ellipse>
    <ellipse class="cls-29" cx="233.5" cy="340.2" rx="2.8" ry="1.6" transform="rotate(-60 233.5 340.2)"></ellipse>
    <path class="cls-120" d="M355.2 289.5l-4.9 2.8-4.8-2.8 5-3a5 5 0 015.3-.1q2.4 1.3-.6 3.1m-1.5-4.8a7.8 7.8 0 00-3.6 1l-7 4 11.7 6.8 1.4-.8-5-2.9 5.2-3c1.3-.7 2-1.5 2.1-2.3s-.3-1.4-1.3-2a6.4 6.4 0 00-3.5-.9zm17.4-.4a1.3 1.3 0 01.3 1c0 .7-.7 1.4-2 2.2a7.2 7.2 0 01-3.5 1 6.2 6.2 0 01-3.3-.9 3.7 3.7 0 01-1.2-1 1.4 1.4 0 01-.3-1q.1-1 1.8-2c2.5-1.4 4.8-1.4 7-.2a4 4 0 011.2 1m-4-2.7a10.3 10.3 0 00-5 1.5q-2.3 1.4-2.4 2.8t1.7 2.3a7.7 7.7 0 004.1 1 9.6 9.6 0 002.4-.3 12.1 12.1 0 002.4-1c1.6-1 2.5-2 2.6-3s-.5-1.5-1.7-2.2a7.5 7.5 0 00-4.1-1zm15.1-3.4c1.6.9 1 2.2-1.8 3.8a17.7 17.7 0 01-2.4 1.1 7.6 7.6 0 01-2 .5 5.5 5.5 0 01-1.4 0 6 6 0 01-1.5-.4l1.3-.8a3.2 3.2 0 002 .4 8.2 8.2 0 003.1-1.2q3-1.7 1.5-2.5a2.7 2.7 0 00-2.2-.2l-2.7 1.2a25.7 25.7 0 01-3.2 1.3 3.7 3.7 0 01-2.8-.3c-.7-.4-1-1-.7-1.6a4.6 4.6 0 011-1 14.2 14.2 0 011.6-1q4-2.4 6.6-1l-1.3.8c-1.2-.7-2.7-.5-4.6.6a4.7 4.7 0 00-1.8 1.4c-.2.4 0 .8.4 1a2.5 2.5 0 002 0 33 33 0 003-1.2 15.4 15.4 0 013-1.2 4 4 0 013 .3zm7.3-1.7l-.5.3-.3.2a6 6 0 01-2.2.9 3 3 0 01-1.9-.5l-5.3-3-1.5.9-.8-.5 1.6-.9-2.6-1.5 1.2-.7 2.5 1.5 2-1.2.9.4-2.1 1.2 5.1 3a1.8 1.8 0 001.1.3 3.4 3.4 0 001.3-.5 1 1 0 00.3-.1l.3-.3.8.4zm6.4-5.8a2.1 2.1 0 01-.5 1 4.8 4.8 0 01-1.2 1c-2.5 1.4-4.8 1.5-6.8.3-1-.5-1.4-1.1-1.3-1.8s.7-1.4 1.9-2a7.4 7.4 0 013.4-1 5.8 5.8 0 013.1.7c1 .5 1.5 1.2 1.4 1.8m-3.8-4.6l-1.1.7 1.3.8a19.9 19.9 0 00-2.2 0 9.3 9.3 0 00-3.1 1.2c-1.6.9-2.4 1.8-2.5 2.7s.4 1.6 1.7 2.3a7.3 7.3 0 004 1 10 10 0 004.4-1.4c1.8-1 2.6-2 2.4-3.1l1.3.8c.9.5 1.3 1 1.2 1.6s-.7 1.3-2 2a8 8 0 01-3 1.2 4.6 4.6 0 01-2-.3l-1.3.7a5.7 5.7 0 003 .4 11.5 11.5 0 004.1-1.6q4.7-2.7 1.2-4.7l-7.4-4.2zm7.2-3.2a9 9 0 00-1 .5q-3 1.7.2 3.5l3.8 2.2-1.2.7-7.6-4.4 1.2-.7 1.3.8a1.2 1.2 0 01-.2-1.3 4.1 4.1 0 011.7-1.4l.8-.5 1 .6zm3.7.8a2.2 2.2 0 01-1-1.8 2.2 2.2 0 01.5-1 5.2 5.2 0 011.3-1 7.5 7.5 0 013.5-1 5.5 5.5 0 013 .6l-7.3 4.1m5-5.6a9 9 0 00-2.5.4 11.4 11.4 0 00-2.4 1c-1.6 1-2.4 1.8-2.5 2.7s.4 1.7 1.6 2.5a7.6 7.6 0 004.2 1 10.4 10.4 0 004.9-1.5 7.9 7.9 0 001.5-1.2 3.4 3.4 0 00.9-1.1 1.8 1.8 0 00-.6-2l-1.3.8c.9 1 .4 2-1.3 3a7.7 7.7 0 01-3.8 1.1 5.6 5.6 0 01-3-.7l8.4-4.9a8 8 0 00-4.2-1.1z"></path>
    <path class="cls-121" d="M425.2 252.3q3.4 2-2.1 5a14.3 14.3 0 01-6 2.2 7.2 7.2 0 01-4.2-1l1.5-.9q3.2 1.8 7.7-.8c1.5-.8 2.3-1.6 2.5-2.2s-.1-1-1-1.5a3.8 3.8 0 00-2.8-.3 33.4 33.4 0 00-3.7 1.4 28.3 28.3 0 01-5 1.7 5.3 5.3 0 01-3.8-.5c-1-.6-1.4-1.3-1.1-2s1.3-1.8 3.3-3q5.4-3 9-1l-1.5 1c-1.8-1-4-.9-6.7.7a5.9 5.9 0 00-2.4 2c-.2.5.1 1 .8 1.4a3.7 3.7 0 002.8.3 35.6 35.6 0 004.3-1.6 21.8 21.8 0 014.6-1.5 5.2 5.2 0 013.7.6zm13-6.3a3.5 3.5 0 01-.8 1.6 8 8 0 01-2 1.6 11.8 11.8 0 01-5.7 1.6 9.7 9.7 0 01-5.3-1.2c-1.7-1-2.4-2-2.2-3.2s1-2.2 2.8-3.2a11.6 11.6 0 015.7-1.6 10.7 10.7 0 012.8.2 9.4 9.4 0 012.5 1c1.7 1 2.4 2 2.3 3.2m1.5 0a2.5 2.5 0 00-.3-2.1 5.8 5.8 0 00-2-1.9 11.4 11.4 0 00-6.2-1.5 13.6 13.6 0 00-3.6.6 16.2 16.2 0 00-3.6 1.6q-3.4 2-3.7 4t2.6 3.7a11.5 11.5 0 006.4 1.4 15.2 15.2 0 007-2 16.6 16.6 0 002-1.5 4.3 4.3 0 001.2-1.3l3.7-.4v-1l-3.5.4zm14.4-7l-10 5.8-11.6-6.7 1.4-.8 10.7 6.1 8.6-5 1 .6z"></path>
    <path class="cls-122" d="M306.7 213.8a75.6 75.6 0 0168.4 0c3.4 2 13-4.3 13.3-1.3 1 13.2 3.2 32.6-13.3 41.8a75.6 75.6 0 01-68.4 0c-18.7-10-14.2-37.4-14-40.2.2-3.3 10.4 1.7 14-.3z"></path>
    <path class="cls-123" d="M306.7 212a75.6 75.6 0 0168.4 0c3.4 2 13-4.2 13.3-1.3 1 13.3 3.2 32.7-13.3 41.9a75.7 75.7 0 01-68.4 0c-18.7-10-14.2-37.4-14-40.2.2-3.3 10.4 1.7 14-.3z"></path>
    <ellipse class="cls-124" cx="340.7" cy="213.4" rx="48" ry="27.7"></ellipse>
    <ellipse class="cls-125" cx="340.7" cy="213.4" rx="45.6" ry="25.7"></ellipse>
    <path class="cls-126" d="M308.4 197.3a72.5 72.5 0 0164.5 0c8.5 4.7 12.9 10.9 13.3 17.1-.4 6.3-4.8 12.4-13.3 17.2a73.1 73.1 0 01-64.5 0c-8.4-4.8-12.9-11-13.3-17.2.4-6.2 4.9-12.4 13.3-17.1z"></path>
    <path class="cls-122" d="M306.7 190.3a75.7 75.7 0 0168.4 0c3.4 2 13-4.3 13.3-1.3 1 13.2 3.2 32.6-13.3 41.8a75.6 75.6 0 01-68.4 0c-18.7-9.9-14.2-37.4-14-40.2.2-3.3 10.4 1.8 14-.3z"></path>
    <path class="cls-127" d="M306.7 188.6a75.6 75.6 0 0168.4 0c3.4 2 13-4.3 13.3-1.3 1 13.2 3.2 32.6-13.3 41.8a75.7 75.7 0 01-68.4 0c-18.7-10-14.2-37.4-14-40.2.2-3.3 10.4 1.8 14-.3z"></path>
    <ellipse class="cls-124" cx="340.7" cy="189.9" rx="48" ry="27.7"></ellipse>
    <ellipse class="cls-125" cx="340.7" cy="189.9" rx="45.6" ry="25.7"></ellipse>
    <path class="cls-126" d="M308.4 173.8c17.8-10.1 46.7-10.1 64.5 0 8.5 4.7 12.9 11 13.3 17.1-.4 6.3-4.8 12.4-13.3 17.2a72.5 72.5 0 01-64.5 0c-8.4-4.8-12.9-11-13.3-17.2.4-6.2 4.9-12.3 13.3-17.1z"></path>
    <path class="cls-122" d="M306.7 167a75.7 75.7 0 0168.4 0c3.4 2 13-4.3 13.3-1.4 1 13.3 3.2 32.7-13.3 41.9a75.6 75.6 0 01-68.4 0c-18.7-10-14.2-37.4-14-40.2.2-3.3 10.4 1.8 14-.3z"></path>
    <path class="cls-128" d="M306.7 165.3a75.6 75.6 0 0168.4 0c3.4 2 13-4.3 13.3-1.4 1 13.3 3.2 32.6-13.3 41.9a75.7 75.7 0 01-68.4 0c-18.7-10-14.2-37.4-14-40.2.2-3.3 10.4 1.7 14-.3z"></path>
    <ellipse class="cls-124" cx="340.7" cy="166.6" rx="48" ry="27.7"></ellipse>
    <ellipse class="cls-129" cx="340.7" cy="166.6" rx="45.6" ry="25.7"></ellipse>
    <path class="cls-130" d="M308.4 150.5c17.8-10.1 46.7-10.1 64.5 0 8.5 4.7 12.9 11 13.3 17.1-.4 6.3-4.8 12.4-13.3 17.2a72.5 72.5 0 01-64.5 0c-8.4-4.8-12.9-11-13.3-17.2.4-6.2 4.9-12.4 13.3-17.1z"></path>
    <path d="M367.6 169.3c-2.2-1.6-2.7-1.8-.4-2.6l.5-.2a10.8 10.8 0 003.6-3c1.2-2 .8-3.8-1-2.2-4.2 3.7-6.3 2.9-6.3 2.9-2.7-8-10.8-15.3-15.3-15.6a22.2 22.2 0 00-18.6 6.6 28.1 28.1 0 00-3.9 1.8c-2.4 1.3-3.5 2.8-3.9 4.1 0 0-23.7 5.7-7.3 14.3 3.5 1.8 30 11.8 28.8 4.8a47.4 47.4 0 01-.5-4.8 9.3 9.3 0 004.2-1.5 5.2 5.2 0 001 .5c.1 1.7.8 1.6-1.4 3.6s.4 1.6 1.8 1.1c1.7-.5 5.2-2 4.4-5l.2.3c1 0 3.7 1.6 5.8 2.6a29.4 29.4 0 005.5 2.5c1.4.4 4.7 1.7 7.6-.9 2.4-2.2 3.9-4-4.8-9.3"></path>
    <path d="M373.3 180.5a9.7 9.7 0 01-4.8 1.3 14.9 14.9 0 01-4.5-.7l-.4-.1a31 31 0 01-6.2-2.8l-1.1-.6-.8-.4a5.9 5.9 0 01-1.2 1.2 13 13 0 01-4 2.1 11.8 11.8 0 01-2.2.5 8.3 8.3 0 01-1.5 0c-.3 1.8-2 2.5-3.1 2.9-2 .5-4.7.5-8.3-.1a77.3 77.3 0 01-8.9-2.3 103.8 103.8 0 01-13.1-4.9c-5.2-2.7-7.4-5.5-6.5-8.3.7-2.4 3.4-4.5 8-6.5a51.5 51.5 0 015.2-1.7 9.7 9.7 0 014.4-4.2 34.8 34.8 0 013.6-1.8 20.5 20.5 0 015-3.7A28.6 28.6 0 01349 147c4 .3 7.9 3.3 10.4 5.7a30.9 30.9 0 016.6 9.3 14.8 14.8 0 002-1.5 5.1 5.1 0 014.8-1.2 2.3 2.3 0 012 2.5 5.5 5.5 0 01-1 2.3 12.7 12.7 0 01-4.3 3.6l-.4.1.2.2.4.2c4.4 2.7 6.6 4.7 7.2 6.6s-.8 3.5-2.2 4.7a8.4 8.4 0 01-1.4 1zm-20-7.6c2-.2 3.7.7 6.8 2.4l1 .6a31.2 31.2 0 004.8 2.2l.6.1c1.7.5 2.3.7 3.6-.4s1.6-1.6 1.4-2.4c-.4-1.2-2.4-2.9-5.9-5l-.2-.1-.4-.3c-1.3-1-2.3-1.7-2-2.7a2.7 2.7 0 011.6-1.4 6.2 6.2 0 01-2.1-.4l-1-.3-.2-.7a26.8 26.8 0 00-6.6-10.1c-3.4-3.4-6-4.2-6.4-4.2-9.8-.7-15.1 5-15.7 5.6v.1l-.6.5-.5.2a26 26 0 00-3.4 1.6c-1.8 1-2.8 2-3 3.2l-.3 1-1.5.3c-2.8.7-10.4 3.1-11.3 6.2-.5 1.6 1.1 3.5 4.8 5.4a100 100 0 0012.4 4.5A31.3 31.3 0 00341 181a.8.8 0 000-.6c-.4-2.6-.5-4.9-.5-5v-1.3l2.2-.2a6.4 6.4 0 002-.6l.5-3.5 4.4 3a2.3 2.3 0 00.5.3l1 .4v.8l2.3-.5z"></path>
    <path class="cls-131" d="M370.3 161.3c-4.2 3.7-6.3 2.9-6.3 2.9-2.7-8-10.8-15.3-15.3-15.6a22.2 22.2 0 00-18.6 6.6 28.1 28.1 0 00-3.9 1.8c-2.4 1.3-3.5 2.8-3.9 4.1 0 0-23.7 5.7-7.3 14.3 3.5 1.8 30 11.8 28.8 4.8a47.4 47.4 0 01-.5-4.8 9.3 9.3 0 004.2-1.5 5.2 5.2 0 001 .5c.1 1.7.8 1.6-1.4 3.6s.4 1.6 1.8 1.1c1.7-.5 5.2-2 4.4-5l.2.3c1 0 3.9 1.1 6 2.4a20.6 20.6 0 005.3 2.7c1.6.4 4.7 1.7 7.6-.9 2.5-2.2 2.4-4-.3-5.9-1.9-1.2-1.2-1.3-3-2.3l-.6-.7c-2.4-1.8-3.6-2.1-1.3-3l.6-.2a10.8 10.8 0 003.5-3c1.3-2 .9-3.8-1-2.2z"></path>
    <path class="cls-17" d="M372.3 179.7a8.5 8.5 0 01-4 1.1 14 14 0 01-4-.5c-1.6-.3-6-2.5-12.5-6.5-.4-.2-.3-.5 0-.7a1.4 1.4 0 011.3 0 73.3 73.3 0 0011.8 6.2c2.4.6 4.9.9 7.1-1.1s2.2-3.1 0-5l-8-5.8c-.3-.2-.2-.6.2-.8a1.4 1.4 0 011.3.1c1 .7 6.2 4.5 8 6 2.6 2.1 2.6 3.7 0 6a7.8 7.8 0 01-1.3 1zm-28.8 2.8a4.2 4.2 0 01-1 .4c-2.6.8-7.9 0-15.4-2.3a102 102 0 01-12.8-4.8c-4.7-2.4-6.7-5-6-7.4 1.5-4.8 13-7.7 13.5-7.8a1.3 1.3 0 011.2.3c.2.3 0 .6-.5.7 0 0-11 2.8-12.3 7-.7 2 1.2 4.2 5.3 6.4a102.4 102.4 0 0012.4 4.6c6.8 2 11.8 3 13.8 2.3a1.3 1.3 0 001-1.7 44 44 0 01-.4-4.7c0-.3.4-.5.9-.5s1 .2 1 .5a42.4 42.4 0 00.4 4.6 2.1 2.1 0 01-1.1 2.4zm21-18a1.2 1.2 0 01-.5.1c-.5.1-1 0-1-.4a28 28 0 00-6.9-10.4c-2.8-2.8-5.8-4.6-7.7-4.7a23.1 23.1 0 00-13 2.7 17.2 17.2 0 00-4.6 3.5 1.3 1.3 0 01-1.2.3c-.4 0-.7-.3-.5-.6a16.4 16.4 0 014.9-4 26 26 0 0114.7-3c3.6.3 7.5 3.7 9 5.2a28.7 28.7 0 017 10.8c.2.2 0 .4-.2.5z"></path>
    <path class="cls-17" d="M368.7 166.6a8.3 8.3 0 01-2.8 1 2.8 2.8 0 01-1.7-.1c-2.6-1.4-1.8-2.4-1.3-3h-.8a20.8 20.8 0 01-3.7-.6l-1.5-.3a70.4 70.4 0 01-7-1.4c-3.3-.9-5-1.9-5.4-3s.8-2.4 3.5-3.6a32.4 32.4 0 00-7.1-1.1c-3.8-.2-9.3.1-14.2 2.9-2.4 1.3-3.7 3-3.7 4.6 0 4 6.3 7.4 6.4 7.4.4.2.4.6 0 .8a1.4 1.4 0 01-1.3 0c-.3-.2-6.9-3.8-7-8.2 0-2 1.5-3.8 4.4-5.4a29 29 0 0115.4-3.2 30.7 30.7 0 019.1 1.6c.8.4.4.8.3.8l-.2.1c-3.5 1.5-4 2.5-3.8 3 .3.8 1.8 1.6 4.3 2.3a68.7 68.7 0 006.8 1.4l1.8.3a18.9 18.9 0 003.2.4 8 8 0 012 .3c.1 0 1.8.2 5-2.7a2.6 2.6 0 012.5-.7 1.2 1.2 0 011 1.4 4.6 4.6 0 01-.8 2 10.7 10.7 0 01-3.4 3zm-3.3 0a6.5 6.5 0 002.4-1 9.1 9.1 0 002.5-2.3 3.9 3.9 0 00.7-1.7 11.5 11.5 0 01-5.9 3.1h-.3l-.2.2c-.4.5-.8 1 .8 1.8zM351.6 178.5a13.5 13.5 0 01-2.3 1c-.3.1-2.6.9-3.7.2s.2-1.7.6-2c1.6-1.4 1.6-1.6 1.4-2.4a8.8 8.8 0 01-.2-1c0-1.2 1.3-1.6 1.9-1.7a6.3 6.3 0 013.1.2c1 .3 1.5.7 1.7 1.2.5 1.8-.4 3.3-2.5 4.5zm-4.5.5a6.2 6.2 0 001.2-.3c2.2-.8 4.6-2.2 4-4.4-.1-.3-.5-.5-.8-.6a3.2 3.2 0 00-1.5 0c-.5 0-.8.1-.7.6l.1.9c.2 1 .2 1.4-1.7 3a3.2 3.2 0 00-.6.8zm1.3-4.6z"></path>
    <path class="cls-17" d="M348.9 174.8a1.5 1.5 0 01-1.2 0l-.3-.1a12.3 12.3 0 01-6 1.3 12.7 12.7 0 01-7.4-2.2 34.8 34.8 0 00-5.2-3.2l-.7-.4c-.2 0-.7-.4.1-1.9a7.4 7.4 0 012.2-2.3 7.2 7.2 0 016.8-.8c6.5 2.4 7.8 4.4 8.8 5.9a9.2 9.2 0 00.5.7l.2.2a5.9 5.9 0 002 2c.5.2.6.5.3.8zm-19.3-5.2l.4.2a36 36 0 015.5 3.3 10.3 10.3 0 006 1.8 9.6 9.6 0 004.7-1 14.6 14.6 0 01-1.2-1.5l-.1-.1-.6-.9c-1-1.4-2-3-8-5.3a4.5 4.5 0 00-3.3-.1 5.8 5.8 0 00-3.4 3.6z"></path>
    <path class="cls-17" d="M332.9 167.4a2.6 2.6 0 001.8 0c.6-.4.6-.9.4-1s-.8 0-1.4.2-1 .6-.8.8z"></path>
    <path class="cls-17" d="M335 167.4h-.2a3.4 3.4 0 01-1.5.3 1.6 1.6 0 01-.7-.2.3.3 0 010-.3c0-.2.3-.5.9-.7a4 4 0 011-.3 1.2 1.2 0 01.9 0 .5.5 0 010 .6 1 1 0 01-.4.6zm-1.9-.1a2.5 2.5 0 001.4-.1c.4-.2.4-.6.4-.7a2.5 2.5 0 00-1 .3l-.8.5zM349 157.5a.6.6 0 010 1 2.2 2.2 0 01-1.7.3c-.2-.1 0-.5.4-.9a1.8 1.8 0 011.3-.4z"></path>
    <path class="cls-17" d="M349 158.7a2.4 2.4 0 01-1.7.2c-.4-.2 0-.6.4-1s1.1-.6 1.5-.5a.6.6 0 01.3.5.8.8 0 01-.4.7.6.6 0 01-.1.1zm-.8-.8a3.1 3.1 0 00-.3.1c-.5.4-.5.7-.4.8a2 2 0 001.4-.3.6.6 0 00.3-.5.4.4 0 00-.2-.4 1.4 1.4 0 00-.8.3zM362 164.1a1.3 1.3 0 01-.4.2c-.5 0-1-.2-1.1-.4-.6-1.9-2.8-2.8-4.9-3.8a23.4 23.4 0 01-2.6-1.3 17.6 17.6 0 01-2-1.4 14 14 0 00-2-1.5c-.5-.1-.5-.5-.2-.7a1.4 1.4 0 011.3 0 13.4 13.4 0 012.5 1.6 20.4 20.4 0 001.7 1.3 24.4 24.4 0 002.4 1.2c2.3 1 4.8 2.2 5.6 4.4a.4.4 0 01-.3.4z"></path>
    <ellipse class="cls-132" cx="235.8" cy="216" rx="3.1" ry="1.8"></ellipse>
  </g>
</svg>
